<?xml version="1.0" encoding="UTF-8" standalone="no"?>
<!-- Created with Inkscape (http://www.inkscape.org/) -->

<svg
   xmlns:dc="http://purl.org/dc/elements/1.1/"
   xmlns:cc="http://creativecommons.org/ns#"
   xmlns:rdf="http://www.w3.org/1999/02/22-rdf-syntax-ns#"
   xmlns:svg="http://www.w3.org/2000/svg"
   xmlns="http://www.w3.org/2000/svg"
   xmlns:sodipodi="http://sodipodi.sourceforge.net/DTD/sodipodi-0.dtd"
   xmlns:inkscape="http://www.inkscape.org/namespaces/inkscape"
   width="155.34142"
   height="21.968662"
   id="svg3547"
   version="1.1"
   inkscape:version="0.48.3.1 r9886"
   sodipodi:docname="Documento nuevo 4">
  <defs
     id="defs3">
    <clipPath
       clipPathUnits="userSpaceOnUse"
       id="clipPath3031">
      <path
         inkscape:connector-curvature="0"
         d="m 0,0 1726.299,0 0,841.89 L 0,841.89 0,0 z"
         id="path3033" />
    </clipPath>
    <clipPath
       clipPathUnits="userSpaceOnUse"
       id="clipPath3015">
      <path
         inkscape:connector-curvature="0"
         d="m 0,0 1726.299,0 0,841.89 L 0,841.89 0,0 z"
         id="path3017" />
    </clipPath>
    <clipPath
       clipPathUnits="userSpaceOnUse"
       id="clipPath2999">
      <path
         inkscape:connector-curvature="0"
         d="m 0,0 1726.299,0 0,841.89 L 0,841.89 0,0 z"
         id="path3001" />
    </clipPath>
  </defs>
  <sodipodi:namedview
     inkscape:document-units="mm"
     id="base"
     pagecolor="#ffffff"
     bordercolor="#666666"
     borderopacity="1.0"
     inkscape:pageopacity="0.0"
     inkscape:pageshadow="2"
     inkscape:zoom="1.979899"
     inkscape:cx="74.049596"
     inkscape:cy="-32.071651"
     inkscape:current-layer="layer1"
     showgrid="false"
     units="mm"
     fit-margin-left="0.1"
     fit-margin-top="0.1"
     fit-margin-right="0.1"
     fit-margin-bottom="0.1"
     inkscape:window-width="474"
     inkscape:window-height="413"
     inkscape:window-x="66"
     inkscape:window-y="87"
     inkscape:window-maximized="0" />
  <metadata
     id="metadata4">
    <rdf:RDF>
      <cc:Work
         rdf:about="">
        <dc:format>image/svg+xml</dc:format>
        <dc:type
           rdf:resource="http://purl.org/dc/dcmitype/StillImage" />
        <dc:title></dc:title>
      </cc:Work>
    </rdf:RDF>
  </metadata>
  <g
     inkscape:label="Layer 1"
     inkscape:groupmode="layer"
     id="layer1"
     transform="translate(-208.04358,-324.235)">
    <g
       transform="matrix(1.25,0,0,-1.25,-1118.072,1334.4319)"
       id="g2995">
      <g
         id="g2997"
         clip-path="url(#clipPath2999)">
        <g
           id="g3003"
           transform="translate(1098.5071,791.6288)">
          <path
             inkscape:connector-curvature="0"
             d="m 0,0 c -2.779,-0.707 -4.851,-0.752 -6.358,-0.752 -4.378,0 -9.44,2.212 -9.44,8.426 0,6.193 4.356,8.571 10.382,8.571 1.083,0 3.367,-0.118 4.968,-0.73 l 0,-3.633 c -1.366,0.801 -3.32,1.114 -4.356,1.114 -3.555,0 -6.474,-1.483 -6.474,-5.322 0,-3.224 2.283,-5.178 5.486,-5.178 0.589,0 1.154,0.094 1.554,0.282 l 0,3.249 -2.568,0 0,3.108 L 0,9.135 0,0 z"
             style="fill:#000000;fill-opacity:1;fill-rule:nonzero;stroke:none"
             id="path3005" />
        </g>
      </g>
    </g>
    <g
       id="g3007"
       transform="matrix(1.25,0,0,-1.25,259.70979,324.94283)">
      <path
         inkscape:connector-curvature="0"
         d="m 0,0 11.583,0 0,-3.108 -7.203,0 0,-3.39 6.803,0 0,-3.108 -6.803,0 0,-3.72 7.462,0 0,-3.106 L 0,-16.432 0,0 z"
         style="fill:#000000;fill-opacity:1;fill-rule:nonzero;stroke:none"
         id="path3009" />
    </g>
    <g
       transform="matrix(1.25,0,0,-1.25,-1118.072,1334.4319)"
       id="g3011">
      <g
         id="g3013"
         clip-path="url(#clipPath3015)">
        <g
           id="g3019"
           transform="translate(1121.7419,798.1266)">
          <path
             inkscape:connector-curvature="0"
             d="m 0,0 1.343,0 c 1.506,0 3.225,-0.164 3.225,-1.954 0,-1.671 -1.672,-1.907 -3.272,-1.907 L 0,-3.861 0,0 z m -4.379,-6.968 6.922,0 c 2.943,0 6.403,0.824 6.403,4.756 0,2.001 -1.129,3.177 -3.319,3.624 l 0,0.048 c 1.836,0.612 2.896,1.765 2.896,3.838 0,2.825 -2.284,4.167 -5.345,4.167 l -7.557,0 0,-16.433 z M 0,6.357 l 1.271,0 c 1.46,0 2.872,-0.141 2.872,-1.649 0,-1.389 -1.482,-1.742 -2.919,-1.742 L 0,2.966 0,6.357 z"
             style="fill:#000000;fill-opacity:1;fill-rule:nonzero;stroke:none"
             id="path3021" />
        </g>
      </g>
    </g>
    <g
       id="g3023"
       transform="matrix(1.25,0,0,-1.25,299.25979,324.94283)">
      <path
         inkscape:connector-curvature="0"
         d="m 0,0 11.583,0 0,-3.108 -7.203,0 0,-3.39 6.803,0 0,-3.108 -6.803,0 0,-3.72 7.463,0 0,-3.106 L 0,-16.432 0,0 z"
         style="fill:#000000;fill-opacity:1;fill-rule:nonzero;stroke:none"
         id="path3025" />
    </g>
    <g
       transform="matrix(1.25,0,0,-1.25,-1118.072,1334.4319)"
       id="g3027">
      <g
         id="g3029"
         clip-path="url(#clipPath3031)">
        <g
           id="g3035"
           transform="translate(1153.3831,804.4835)">
          <path
             inkscape:connector-curvature="0"
             d="m 0,0 1.153,0 c 1.672,0 3.202,-0.282 3.202,-1.813 0,-1.86 -1.79,-1.907 -3.202,-1.907 L 0,-3.72 0,0 z m -4.38,-13.325 4.38,0 0,6.497 0.918,0 c 1.625,0 2.19,-0.706 3.083,-3.53 l 0.942,-2.967 4.567,0 -1.6,4.473 c -0.824,2.001 -0.918,3.249 -2.331,3.626 l 0,0.046 c 2.118,0.495 3.154,1.954 3.154,4.144 0,2.825 -2.378,4.144 -5.296,4.144 l -7.817,0 0,-16.433 z"
             style="fill:#000000;fill-opacity:1;fill-rule:nonzero;stroke:none"
             id="path3037" />
        </g>
      </g>
    </g>
    <path
       inkscape:connector-curvature="0"
       d="m 338.98916,324.94308 5.475,0 0,20.54 -5.475,0 0,-20.54 z"
       style="fill:#000000;fill-opacity:1;fill-rule:nonzero;stroke:none"
       id="path3039" />
    <g
       id="g3041"
       transform="matrix(1.25,0,0,-1.25,352.49441,329.00395)">
      <path
         inkscape:connector-curvature="0"
         d="m 0,0 -4.048,0 0,3.249 12.477,0 0,-3.249 -4.049,0 0,-13.184 -4.38,0 L 0,0 z"
         style="fill:#000000;fill-opacity:1;fill-rule:nonzero;stroke:none"
         id="path3043" />
    </g>
    <path
       inkscape:connector-curvature="0"
       d="m 229.65666,345.84933 -21.25875,0 0,-21.26 21.25875,0 0,21.26 z"
       style="fill:#4a70b3;fill-opacity:1;fill-rule:nonzero;stroke:none"
       id="path3045" />
  </g>
</svg>
